<svg width="16" height="16" viewBox="0 0 16 16" fill="none" xmlns="http://www.w3.org/2000/svg">
<path d="M13.7688 3.31056C14.122 2.93868 14.0657 2.38634 13.6407 2.07736C13.2157 1.76837 12.5845 1.81759 12.2313 2.18947L8.00008 6.63282L3.76883 2.18947C3.41571 1.81759 2.78446 1.76837 2.35946 2.07736C1.93446 2.38634 1.87821 2.93868 2.23133 3.31056L6.69696 8.00001L2.23133 12.6895C1.87821 13.0613 1.93446 13.6137 2.35946 13.9227C2.78446 14.2317 3.41571 14.1824 3.76883 13.8106L8.00008 9.3672L12.2313 13.8106C12.5845 14.1824 13.2157 14.2317 13.6407 13.9227C14.0657 13.6137 14.122 13.0613 13.7688 12.6895L9.30321 8.00001L13.7688 3.31056Z" fill="black"/>
</svg>
